<svg width="100" height="100" xmlns="http://www.w3.org/2000/svg">
  <!-- Background -->
  <rect width="100" height="100" fill="transparent" />
  
  <!-- Grid Lines -->
  <g stroke-width="1" stroke-opacity="0.1">
    <!-- Horizontal Lines -->
    <line x1="0" y1="20" x2="100" y2="20" stroke="#ff6b97" />
    <line x1="0" y1="40" x2="100" y2="40" stroke="#5390ff" />
    <line x1="0" y1="60" x2="100" y2="60" stroke="#ff6b97" />
    <line x1="0" y1="80" x2="100" y2="80" stroke="#5390ff" />
    
    <!-- Vertical Lines -->
    <line x1="20" y1="0" x2="20" y2="100" stroke="#5390ff" />
    <line x1="40" y1="0" x2="40" y2="100" stroke="#ff6b97" />
    <line x1="60" y1="0" x2="60" y2="100" stroke="#5390ff" />
    <line x1="80" y1="0" x2="80" y2="100" stroke="#ff6b97" />
  </g>
  
  <!-- Dots at Intersections -->
  <g fill="#9f7aea" fill-opacity="0.2">
    <circle cx="20" cy="20" r="1" />
    <circle cx="20" cy="40" r="1" />
    <circle cx="20" cy="60" r="1" />
    <circle cx="20" cy="80" r="1" />
    
    <circle cx="40" cy="20" r="1" />
    <circle cx="40" cy="40" r="1" />
    <circle cx="40" cy="60" r="1" />
    <circle cx="40" cy="80" r="1" />
    
    <circle cx="60" cy="20" r="1" />
    <circle cx="60" cy="40" r="1" />
    <circle cx="60" cy="60" r="1" />
    <circle cx="60" cy="80" r="1" />
    
    <circle cx="80" cy="20" r="1" />
    <circle cx="80" cy="40" r="1" />
    <circle cx="80" cy="60" r="1" />
    <circle cx="80" cy="80" r="1" />
  </g>
</svg>